# xmcd
#
# Track frame offsets: 
#        150
#        15780
#        35104
#        52093
#        65928
#        89271
#        105677
#        121211
#        140583
#        157448
#        173512
#        191082
#        211272
#        229060
#        244286
#        262545
#        282513
#        300963
#        318547
#
# Disc length: 4506 seconds
#
# Revision: 0
# Processed by: cddbd v1.5.2PL0 Copyright (c) Steve Scherf et al.
# Submitted via: ExactAudioCopy v0.99pb4
#
DISCID=11119813
DTITLE=Various Artist - The Neptunes Remixes and Unreleased - Part 2
DYEAR=2008
DGENRE=R&B
TTITLE0=Clipse - The Funeral (Unreleased promo)
TTITLE1=Beyonce - My First Time (Unreleased)
TTITLE2=Lil Flip Feat Pharrel - Package Of Power (Unreleased)
TTITLE3=Foxy Brown - Magnetic (Unreleased)
TTITLE4=Daft Punk Feat. Pharrell - Harder, Better, Faster, Stronger (R
TTITLE4=emix)
TTITLE5=Justin Timberlake Feat. Snoop Dogg - I'm Loving It (Remix)
TTITLE6=Usher Feat. Pharrell - Wifey (Unreleased)
TTITLE7=Alicia Keys feat. Justin Timberlake - How Come You Don't Call 
TTITLE7=Me (Remix)
TTITLE8=The Neptunes - Boys (Neptune's Co-Ed Remix)
TTITLE9=Snoop Dogg - Stay A while (Unreleased)
TTITLE10=Usher - Rumours (Unreleased)
TTITLE11=Brand Nubian - Don't Let It Go To Your Head (Neptunes Remix)
TTITLE12=T.I. - Kick It At The Hotel (Unreleased)
TTITLE13=Usher - Don't Take It Personal (Unreleased)
TTITLE14=Limp Bizkit Feat. Method Man - N2gether Now (The Neptunes Rem
TTITLE14=ix)
TTITLE15=N.O.R.E. Feat. P.Diddy and Foxy Brown - Nothin' (Remix)
TTITLE16=Air - Don't Be Light (The Neptunes Remix)
TTITLE17=Sade - By Your Side (Neptunes Remix)
TTITLE18=Angie Stone - Everyday (Remix)
EXTD=
EXTT0=
EXTT1=
EXTT2=
EXTT3=
EXTT4=
EXTT5=
EXTT6=
EXTT7=
EXTT8=
EXTT9=
EXTT10=
EXTT11=
EXTT12=
EXTT13=
EXTT14=
EXTT15=
EXTT16=
EXTT17=
EXTT18=
PLAYORDER=
